{"title":"Deep.Gold.2011.BRRip.XviD.Ac3.Feel-Free","uid":6968682,"size":1263392122,"categoryP":"video","categoryS":"movies","magnet":"?xt=urn:btih:a53fc55bd7492b7a9dfd4a29c780c6bb2623bc49&amp;dn=Deep.Gold.2011.BRRip.XviD.Ac3.Feel-Free&amp;tr=udp%3A%2F%2Ftracker.openbittorrent.com%3A80&amp;tr=udp%3A%2F%2Fopen.demonii.com%3A1337&amp;tr=udp%3A%2F%2Ftracker.coppersurfer.tk%3A6969&amp;tr=udp%3A%2F%2Fexodus.desync.com%3A6969","seeders":0,"leechers":0,"uploader":".BONE.","files":8,"time":1327007839,"description":"Genre:Action\nLanguage:English\n &lt;a href=&quot;\nhttp://www.imdb.com/title/tt0929742/&quot; rel=&quot;nofollow&quot; target=&quot;_NEW&quot;&gt;\nhttp://www.imdb.com/title/tt0929742/&lt;/a&gt;\n\nSource:BluRay.1080p.x264.DTS-MySilu Thanks!\n\nFormat : AVI\nFormat/Info : Audio Video Interleave\nFile size : 1.18 GiB\nDuration : 1h 25mn\nOverall bit rate : 1 972 Kbps\n\nVideo\nID : 0\nFormat : MPEG-4 Visual\nFormat profile : Advanced Simple@L5\nFormat settings, BVOP : 1\nFormat settings, QPel : No\nFormat settings, GMC : No warppoints\nFormat settings, Matrix : Default (H.263)\nCodec ID : XVID\nCodec ID/Hint : XviD\nDuration : 1h 25mn\nBit rate : 1 515 Kbps\nWidth : 640 pixels\nHeight : 360 pixels\nDisplay aspect ratio : 16:9\nFrame rate : 23.976 fps\nColor space : YUV\nChroma subsampling : 4:2:0\nBit depth : 8 bits\nScan type : Progressive\nCompression mode : Lossy\nBits/(Pixel*Frame) : 0.274\nStream size : 924 MiB (77%)\nWriting library : XviD 1.2.1 (UTC 2008-12-04)\n\nAudio\nID : 1\nFormat : AC-3\nFormat/Info : Audio Coding 3\nMode extension : CM (complete main)\nCodec ID : 2000\nDuration : 1h 25mn\nBit rate mode : Constant\nBit rate : 448 Kbps\nChannel(s) : 6 channels\nChannel positions : Front: L C R, Side: L R, LFE\nSampling rate : 48.0 KHz\nBit depth : 16 bits\nCompression mode : Lossy\nStream size : 273 MiB (23%)\nAlignment : Aligned on interleaves\nInterleave, duration : 42 ms (1.00 video frame)\nInterleave, preload duration : 512 ms\n\n\nPlot:\nShortly after free diver Amy Sanchez breaks an important freediving record, her boyfriend - Air Force Pilot Tony..\n","torrent":{"xt":"urn:btih:a53fc55bd7492b7a9dfd4a29c780c6bb2623bc49","amp;dn":"Deep.Gold.2011.BRRip.XviD.Ac3.Feel-Free","amp;tr":["udp%3A%2F%2Ftracker.openbittorrent.com%3A80","udp%3A%2F%2Fopen.demonii.com%3A1337","udp%3A%2F%2Ftracker.coppersurfer.tk%3A6969","udp%3A%2F%2Fexodus.desync.com%3A6969"],"infoHash":"a53fc55bd7492b7a9dfd4a29c780c6bb2623bc49","infoHashBuffer":{"type":"Buffer","data":[165,63,197,91,215,73,43,122,157,253,74,41,199,128,198,187,38,35,188,73]},"announce":[],"urlList":[]}}